/* XPM */
static char * key_xpm[] = {
"64 64 626 2",
"  	c #16FE0C",
". 	c #16FF09",
"+ 	c #17FE0A",
"@ 	c #15FF0A",
"# 	c #16FF0A",
"$ 	c #16FE0B",
"% 	c #14FF0A",
"& 	c #17FE09",
"* 	c #15FF0B",
"= 	c #18FE0B",
"- 	c #20FB0D",
"; 	c #1FFC0F",
"> 	c #19FD0D",
", 	c #15FF09",
"' 	c #17FF0A",
") 	c #21FC0C",
"! 	c #6CF232",
"~ 	c #A6E846",
"{ 	c #C1E252",
"] 	c #C3E555",
"^ 	c #AFEB53",
"/ 	c #73F637",
"( 	c #20FC0C",
"_ 	c #13FF0A",
": 	c #44F71C",
"< 	c #AEE146",
"[ 	c #DBD557",
"} 	c #E4D35D",
"| 	c #E8D965",
"1 	c #E9DB67",
"2 	c #EADC68",
"3 	c #E4E167",
"4 	c #B9ED5C",
"5 	c #4DF824",
"6 	c #17FF09",
"7 	c #16FF0B",
"8 	c #17FF0B",
"9 	c #16FE0A",
"0 	c #44F61A",
"a 	c #BED951",
"b 	c #E0D158",
"c 	c #E6D65C",
"d 	c #E6D65F",
"e 	c #E8D964",
"f 	c #EBDC68",
"g 	c #ECDF6B",
"h 	c #F1E470",
"i 	c #F1E374",
"j 	c #D1EC65",
"k 	c #54F928",
"l 	c #2DF90F",
"m 	c #B6D743",
"n 	c #E1CE58",
"o 	c #E4D25D",
"p 	c #E6D560",
"q 	c #DDCB5F",
"r 	c #CABA52",
"s 	c #CBBB57",
"t 	c #E1D36A",
"u 	c #F1E471",
"v 	c #F2E776",
"w 	c #F3EA7A",
"x 	c #CDEE68",
"y 	c #36FC1B",
"z 	c #17FE0B",
"A 	c #8DD930",
"B 	c #DFCA53",
"C 	c #E3CF59",
"D 	c #DDCB5C",
"E 	c #B6A346",
"F 	c #BEAB4B",
"G 	c #D3C156",
"H 	c #D1BE56",
"I 	c #BFB04B",
"J 	c #B9AA52",
"K 	c #EBDE75",
"L 	c #F5EB7C",
"M 	c #F4EC7F",
"N 	c #ABF255",
"O 	c #19FE0C",
"P 	c #16FF08",
"Q 	c #47EE16",
"R 	c #CCC249",
"S 	c #E0CA57",
"T 	c #D9C355",
"U 	c #B9A444",
"V 	c #DECA5E",
"W 	c #E6D565",
"X 	c #ECDC6B",
"Y 	c #EDDD6C",
"Z 	c #E9DD6C",
"` 	c #E2D567",
" .	c #BBAC4F",
"..	c #EBDD78",
"+.	c #FAF186",
"@.	c #EFF07C",
"#.	c #64F933",
"$.	c #18FE0A",
"%.	c #98CC32",
"&.	c #DAC250",
"*.	c #DDC754",
"=.	c #BEA749",
"-.	c #DFCA5B",
";.	c #EAD769",
">.	c #EBDA6A",
",.	c #DECE5F",
"'.	c #E6D767",
").	c #F0E473",
"!.	c #F3E476",
"~.	c #EBDB73",
"{.	c #C3B356",
"].	c #F7EA85",
"^.	c #FCF185",
"/.	c #C1F062",
"(.	c #1BFD0C",
"_.	c #3AF112",
":.	c #C4B642",
"<.	c #DAC150",
"[.	c #C0A848",
"}.	c #DEC75A",
"|.	c #E9D366",
"1.	c #EBD669",
"2.	c #EAD667",
"3.	c #D8C85F",
"4.	c #E9D96B",
"5.	c #F0E374",
"6.	c #F3E477",
"7.	c #F5E77A",
"8.	c #E8D86D",
"9.	c #CEBC68",
"0.	c #FCEF83",
"a.	c #EFEF7C",
"b.	c #58F829",
"c.	c #7BD427",
"d.	c #CDB346",
"e.	c #D1B54D",
"f.	c #CAB04D",
"g.	c #E5CC5E",
"h.	c #E7D164",
"i.	c #E9D568",
"j.	c #E8D669",
"k.	c #DECD64",
"l.	c #EBDB6C",
"m.	c #EFE174",
"n.	c #F3E276",
"o.	c #F5E679",
"p.	c #F5E577",
"q.	c #D3BF5D",
"r.	c #EDDD79",
"s.	c #F8EB80",
"t.	c #A5ED4F",
"u.	c #1DFD0F",
"v.	c #A7B735",
"w.	c #D0B245",
"x.	c #C3A546",
"y.	c #DFC359",
"z.	c #E4CB5E",
"A.	c #E6CE62",
"B.	c #E6D268",
"C.	c #EEDC72",
"D.	c #ECDB6E",
"E.	c #EEDF6E",
"F.	c #F4E67B",
"G.	c #F2E176",
"H.	c #F4E377",
"I.	c #ECD76E",
"J.	c #CDB95D",
"K.	c #F2E177",
"L.	c #D1E365",
"M.	c #1EFD0D",
"N.	c #36F110",
"O.	c #C2AD40",
"P.	c #D2B14B",
"Q.	c #C8A746",
"R.	c #E3C45B",
"S.	c #E6C85E",
"T.	c #DDC35B",
"U.	c #DFC65D",
"V.	c #E9D266",
"W.	c #EAD669",
"X.	c #ECD96C",
"Y.	c #EFDC72",
"Z.	c #F0DD72",
"`.	c #F0DC71",
" +	c #EED66C",
".+	c #C6AD50",
"++	c #EAD56F",
"@+	c #E5D569",
"#+	c #50F61E",
"$+	c #66E11F",
"%+	c #CFB047",
"&+	c #C9A648",
"*+	c #D8B653",
"=+	c #E5C25B",
"-+	c #E6C45C",
";+	c #D3B954",
">+	c #E8CA62",
",+	c #E8CD65",
"'+	c #E9D168",
")+	c #E6CF65",
"!+	c #ECD26B",
"~+	c #EED96D",
"{+	c #E8D268",
"]+	c #EBD46A",
"^+	c #E8CF65",
"/+	c #D9B957",
"(+	c #D3BA5B",
"_+	c #E6CC62",
":+	c #84ED36",
"<+	c #8BD131",
"[+	c #D6B14C",
"}+	c #CBA649",
"|+	c #DFBB58",
"1+	c #E5C05A",
"2+	c #E3BF59",
"3+	c #D1B352",
"4+	c #E5C65F",
"5+	c #D7BA59",
"6+	c #D4B856",
"7+	c #DABF57",
"8+	c #AE903C",
"9+	c #E0C865",
"0+	c #D2B753",
"a+	c #E7CC63",
"b+	c #E5C860",
"c+	c #DFBE58",
"d+	c #C4A74E",
"e+	c #E3C35B",
"f+	c #A3DE42",
"g+	c #A6C33D",
"h+	c #D9B451",
"i+	c #E1BA59",
"j+	c #E3BD59",
"k+	c #E2BC57",
"l+	c #D0AE50",
"m+	c #E3C15A",
"n+	c #CAA94B",
"o+	c #D1B051",
"p+	c #E0C15B",
"q+	c #D2B252",
"r+	c #B4913E",
"s+	c #E3C25C",
"t+	c #E3C55E",
"u+	c #E2C15B",
"v+	c #DFBC56",
"w+	c #BE9F48",
"x+	c #DFBC55",
"y+	c #B9D24B",
"z+	c #19FD0C",
"A+	c #17FD0C",
"B+	c #BBB944",
"C+	c #DAB553",
"D+	c #CDA749",
"E+	c #E0BA58",
"F+	c #E2BA57",
"G+	c #DFB753",
"H+	c #CBA94E",
"I+	c #E0BD56",
"J+	c #DEBA59",
"K+	c #CFAD4F",
"L+	c #E0BC58",
"M+	c #E1BC57",
"N+	c #E1BA55",
"O+	c #E4C05A",
"P+	c #DEB954",
"Q+	c #BF9D45",
"R+	c #DEB955",
"S+	c #C8C74E",
"T+	c #1CFC0D",
"U+	c #22FA0D",
"V+	c #C3B446",
"W+	c #D9B352",
"X+	c #D0A94A",
"Y+	c #DFB756",
"Z+	c #E0B856",
"`+	c #DFB653",
" @	c #C3A047",
".@	c #DFB954",
"+@	c #E3BE5B",
"@@	c #D0AE4F",
"#@	c #DCB653",
"$@	c #DFBA53",
"%@	c #E0BB55",
"&@	c #DEB853",
"*@	c #C19D42",
"=@	c #DBB654",
"-@	c #D0C14E",
";@	c #2AFB0E",
">@	c #29F60D",
",@	c #C9B149",
"'@	c #D5AE4E",
")@	c #D3AD4C",
"!@	c #DDB553",
"~@	c #DFB654",
"{@	c #DEB553",
"]@	c #BD9841",
"^@	c #DDB754",
"/@	c #DCB754",
"(@	c #DDB755",
"_@	c #DDB753",
":@	c #E0BC56",
"<@	c #DEB953",
"[@	c #DDB752",
"}@	c #C7A246",
"|@	c #D5B052",
"1@	c #D4BB4E",
"2@	c #37F913",
"3@	c #29F40C",
"4@	c #CAB24A",
"5@	c #D4AD4D",
"6@	c #D5AE4C",
"7@	c #DBB350",
"8@	c #DCB351",
"9@	c #DBB34F",
"0@	c #C49E42",
"a@	c #C9A349",
"b@	c #DAB451",
"c@	c #DBB452",
"d@	c #DAB44F",
"e@	c #D9B54F",
"f@	c #DFBB56",
"g@	c #DAB550",
"h@	c #DCB651",
"i@	c #CBA748",
"j@	c #D2AE51",
"k@	c #D6BA50",
"l@	c #41F716",
"m@	c #2CF40E",
"n@	c #C9B148",
"o@	c #D3AC4B",
"p@	c #D2AB49",
"q@	c #D8B14D",
"r@	c #D9B14E",
"s@	c #D7B24E",
"t@	c #AC8534",
"u@	c #CEAB4A",
"v@	c #D7B14C",
"w@	c #D8B34D",
"x@	c #D9B44E",
"y@	c #D8B54F",
"z@	c #CEA94B",
"A@	c #D3AF51",
"B@	c #D7BA50",
"C@	c #40F615",
"D@	c #28F610",
"E@	c #C4AE43",
"F@	c #D2AC49",
"G@	c #CEA745",
"H@	c #D4AE4A",
"I@	c #D4AE4B",
"J@	c #D3AE4C",
"K@	c #D4AE4D",
"L@	c #CBA549",
"M@	c #A37F2E",
"N@	c #CBA84C",
"O@	c #D5B14B",
"P@	c #D6B34C",
"Q@	c #D8B34E",
"R@	c #DBB550",
"S@	c #CCA74B",
"T@	c #D7B252",
"U@	c #D6BC51",
"V@	c #36F815",
"W@	c #21FA0E",
"X@	c #BEAD3D",
"Y@	c #CEAA45",
"Z@	c #CCA744",
"`@	c #D1AC48",
" #	c #D1AC49",
".#	c #D0AC48",
"+#	c #C6A242",
"@#	c #BD9A42",
"##	c #CCA946",
"$#	c #BE9942",
"%#	c #D6B04C",
"&#	c #D5B24C",
"*#	c #C6A146",
"=#	c #DBB755",
"-#	c #D0BD4F",
";#	c #2AF90F",
">#	c #AFB238",
",#	c #C9A742",
"'#	c #C8A542",
")#	c #CCA945",
"!#	c #CDA845",
"~#	c #CDA945",
"{#	c #CDA947",
"]#	c #CBA745",
"^#	c #BC9A40",
"/#	c #CAA844",
"(#	c #B18E36",
"_#	c #D3AF4B",
":#	c #D1AE48",
"<#	c #D4B04A",
"[#	c #D8B24D",
"}#	c #D9B34E",
"|#	c #C39E45",
"1#	c #DCB855",
"2#	c #C4BE4A",
"3#	c #1DFC0D",
"4#	c #15FF0C",
"5#	c #9DB82F",
"6#	c #C2A23F",
"7#	c #C4A341",
"8#	c #C6A440",
"9#	c #C7A541",
"0#	c #C6A640",
"a#	c #C2A23D",
"b#	c #C1A040",
"c#	c #C5A441",
"d#	c #B6963C",
"e#	c #C5A540",
"f#	c #B7973A",
"g#	c #CCAB46",
"h#	c #C6A53F",
"i#	c #CEAC46",
"j#	c #D2AF49",
"k#	c #D2AF4A",
"l#	c #BD9C42",
"m#	c #AFC23E",
"n#	c #86C725",
"o#	c #BA9C38",
"p#	c #BB9E3B",
"q#	c #BE9E3B",
"r#	c #BF9F3B",
"s#	c #BE9F3C",
"t#	c #B09034",
"u#	c #C2A242",
"v#	c #C6A847",
"w#	c #AE8F35",
"x#	c #BDA03B",
"y#	c #BD9F41",
"z#	c #C3A33C",
"A#	c #BD9D38",
"B#	c #C6A63F",
"C#	c #C9A842",
"D#	c #C6A542",
"E#	c #B8993D",
"F#	c #CAA842",
"G#	c #92CC2F",
"H#	c #61DA1B",
"I#	c #B09532",
"J#	c #B79A39",
"K#	c #B39734",
"L#	c #B59835",
"M#	c #B49836",
"N#	c #9B7E2A",
"O#	c #B19537",
"P#	c #B89B3A",
"Q#	c #B19534",
"R#	c #B49A36",
"S#	c #B69A37",
"T#	c #B79935",
"U#	c #AF9231",
"V#	c #BC9E38",
"W#	c #BE9F3A",
"X#	c #B89A39",
"Y#	c #AF9236",
"Z#	c #BC9E3B",
"`#	c #70DA22",
" $	c #38EE12",
".$	c #A5922D",
"+$	c #A9902F",
"@$	c #AE9533",
"#$	c #AA902E",
"$$	c #9B822D",
"%$	c #99832A",
"&$	c #A8912E",
"*$	c #A8902D",
"=$	c #A9912C",
"-$	c #A9902E",
";$	c #A58D30",
">$	c #A48A2C",
",$	c #AE932E",
"'$	c #AE9530",
")$	c #A28A2B",
"!$	c #AA9132",
"~$	c #AB9531",
"{$	c #41EC14",
"]$	c #1AFC0C",
"^$	c #8EA025",
"/$	c #9E8A28",
"($	c #A99433",
"_$	c #A28B29",
":$	c #A38C2B",
"<$	c #9F892B",
"[$	c #826D1B",
"}$	c #96822D",
"|$	c #9D8C28",
"1$	c #9E8B2C",
"2$	c #9B872A",
"3$	c #8D7824",
"4$	c #A28C2D",
"5$	c #A38E2B",
"6$	c #A28D2B",
"7$	c #988426",
"8$	c #A08C2D",
"9$	c #93A229",
"0$	c #1FFA0C",
"a$	c #6AC51D",
"b$	c #9C8926",
"c$	c #A38F30",
"d$	c #A18D2D",
"e$	c #9F8929",
"f$	c #9D8828",
"g$	c #968327",
"h$	c #7B671C",
"i$	c #8F7E25",
"j$	c #948129",
"k$	c #7E6D1C",
"l$	c #978427",
"m$	c #9D8929",
"n$	c #988329",
"o$	c #99842A",
"p$	c #9C892A",
"q$	c #73C423",
"r$	c #3CEB11",
"s$	c #978C26",
"t$	c #988626",
"u$	c #AA9639",
"v$	c #9C8728",
"w$	c #9C8829",
"x$	c #9A8828",
"y$	c #968525",
"z$	c #8F7D28",
"A$	c #96842A",
"B$	c #978626",
"C$	c #998727",
"D$	c #9B8829",
"E$	c #998528",
"F$	c #948026",
"G$	c #9B872C",
"H$	c #998E2A",
"I$	c #3FE913",
"J$	c #19FE0D",
"K$	c #7CB123",
"L$	c #998728",
"M$	c #A18E30",
"N$	c #A89639",
"O$	c #9B8828",
"P$	c #9B8929",
"Q$	c #7F6C1F",
"R$	c #887622",
"S$	c #978726",
"T$	c #998726",
"U$	c #998628",
"V$	c #9A8728",
"W$	c #82AD24",
"X$	c #1AFD0C",
"Y$	c #14FF0B",
"Z$	c #42E516",
"`$	c #998F28",
" %	c #A9993B",
".%	c #AC993D",
"+%	c #9C8929",
"@%	c #9C892B",
"#%	c #948224",
"$%	c #9B8928",
"%%	c #A18E2F",
"&%	c #9F8C2D",
"*%	c #968E28",
"=%	c #4BE017",
"-%	c #18FD0C",
";%	c #74BD1F",
">%	c #9F8C2B",
",%	c #9E8B2A",
"'%	c #AE9A3C",
")%	c #B7A347",
"!%	c #A38E30",
"~%	c #9E8B2B",
"{%	c #A99738",
"]%	c #A49233",
"^%	c #9C8A2A",
"/%	c #9D8B28",
"(%	c #76B922",
"_%	c #2BF50F",
":%	c #8BA326",
"<%	c #9F8D2B",
"[%	c #A28C2A",
"}%	c #A38E2E",
"|%	c #B39E41",
"1%	c #B4A142",
"2%	c #B19E3E",
"3%	c #AE9B3A",
"4%	c #A08D2D",
"5%	c #9F8C2C",
"6%	c #9D8C2B",
"7%	c #8DA225",
"8%	c #31F311",
"9%	c #3DE917",
"0%	c #90A026",
"a%	c #A28F2A",
"b%	c #A08E2A",
"c%	c #A28D2C",
"d%	c #A18D2B",
"e%	c #A18C2A",
"f%	c #A08C2C",
"g%	c #A28E2C",
"h%	c #8F9E27",
"i%	c #47E819",
"j%	c #3DEC13",
"k%	c #83AD26",
"l%	c #A1902B",
"m%	c #A18C2B",
"n%	c #A18D2A",
"o%	c #A09029",
"p%	c #85AA22",
"q%	c #3EEA12",
"r%	c #27F812",
"s%	c #59D31B",
"t%	c #7FB023",
"u%	c #8E9F27",
"v%	c #8E9E27",
"w%	c #7FAE24",
"x%	c #5CD118",
"y%	c #29F613",
"z%	c #16FE09",
"A%	c #16FF0C",
"B%	c #16FE0D",
"C%	c #1EFC0D",
"D%	c #2AF60F",
"E%	c #1EFB0E",
"F%	c #16FE06",
"G%	c #16FF0D",
"H%	c #17FE0C",
"I%	c #15FF0D",
"  . + @ # @ @ # # # # # # # # # # # # # # # # # # # # # # # # # # # # # # # # # # # # # # # # # # # # # # # # # # # # # # # # # ",
"$ # + @ # # # # # # # # # # # # # # # # # # # # # # # # # # # # # # # # # # # # # # # # # # # # # # # # # # # # # # # # # # # # ",
". + # % @ # # # # # # # # # # # # # # # # # # # # # # # # # # # # # # # # # # # # # # # # # # # # # # # # # # # # # # # # # # # ",
"& $ @ @ @ # # # # # # # # # # # # # # # # # # # # # # # # # # # # # # # # # # # # # # # # # # # # # # # # # # # # # # # # # # # ",
"+ # @ # # # # # # # # # # # # # # # # # # # # # # # # # # # # # # # # # # # # # # # # # # # # # # # # # # # # # # # # # # # # # ",
"# @ @ # # # # # # # # # # # # # # # # # # # # # # # # # # # # # # # # # # # # # # # # # # # # # # # # # # # # # # # # # # # # # ",
"@ @ # @ # # # # # # # # # # # # # # # # # # # # # # # # # # # # # # # # # # # # # # # # # # # # # # # # # # # # # # # # # # # # ",
"# @ # @ # # # # # # # # # # # # # # # # # # # # # # # # # # # # # # # # # # # # # # # # # # # # # # # # # # # # # # # # # # # # ",
"# @ # # # # # # # # # # # # # # # # # # # # # # # # # # # # # # # # # # # # # # # # # # # # # # # # # # # # # # # # # # # # # # ",
"# # # # # # # # # # # # # # # # # # # # # # # # # # # # # # # # # # # # # # # # # # # # # # # # # # # # # # # # # # # # # # # # ",
"@ # # # # # # # # # # # # # # # # # # # # # # # # # # # # # # # # # # # # # # # # # # # # # # # # # # # # # # # # # # # # # # # ",
"# # # # # # # # # # # # # # # # # # # # # # # # # # # # # # # # # # # # # # # # # # # # # # # # # # # # # # # # # # # # # # # # ",
"# # # # # # # # # # # # # # # # # # # # # # # # # # # # # # # # # # # # # # # # # # # # # # # # # # # # # # # # # # # # # # # # ",
"# # # # # # # # # # # # # # # # # # # # # # # # # # # + % * = - ; > , @ ' # # # # # # # # # # # # # # # # # # # # # # # # # # # ",
"# # # # # # # # # # # # # # # # # # # # # # # # # # @ @ ) ! ~ { ] ^ / ( # # # # # # # # # # # # # # # # # # # # # # # # # # # # ",
"# # # # # # # # # # # # # # # # # # # # # # # # # # _ : < [ } | 1 2 3 4 5 6 7 8 # # # # # # # # # # # # # # # # # # # # # # # # ",
"# # # # # # # # # # # # # # # # # # # # # # # # # 9 0 a b c d e f g h i j k 8 8 8 # # # # # # # # # # # # # # # # # # # # # # # ",
"# # # # # # # # # # # # # # # # # # # # # # # # # l m n o p q r s t u v w x y ' 8 # # # # # # # # # # # # # # # # # # # # # # # ",
"# # # # # # # # # # # # # # # # # # # # # # # # z A B C D E F G H I J K L M N O # # # # # # # # # # # # # # # # # # # # # # # # ",
"# # # # # # # # # # # # # # # # # # # # # # # P Q R S T U V W X Y Z `  ...+.@.#.# # # # # # # # # # # # # # # # # # # # # # # # ",
"# # # # # # # # # # # # # # # # # # # # # # # $.%.&.*.=.-.;.>.,.'.).!.~.{.].^./.(.@ # # # # # # # # # # # # # # # # # # # # # # ",
"# # # # # # # # # # # # # # # # # # # # # # # _.:.<.[.}.|.1.2.3.4.5.6.7.8.9.0.a.b.@ # # # # # # # # # # # # # # # # # # # # # # ",
"# # # # # # # # # # # # # # # # # # # # # # * c.d.e.f.g.h.i.j.k.l.m.n.o.p.q.r.s.t.* # # # # # # # # # # # # # # # # # # # # # # ",
"# # # # # # # # # # # # # # # # # # # # # # u.v.w.x.y.z.A.B.C.D.E.F.G.H.H.I.J.K.L.M.# # # # # # # # # # # # # # # # # # # # # # ",
"# # # # # # # # # # # # # # # # # # # # # # N.O.P.Q.R.S.T.U.V.W.X.C.Y.Z.`. +.+++@+#+# # # # # # # # # # # # # # # # # # # # # # ",
"# # # # # # # # # # # # # # # # # # # # # # $+%+&+*+=+-+;+>+,+'+)+!+~+{+]+^+/+(+_+:+# # # # # # # # # # # # # # # # # # # # # # ",
"# # # # # # # # # # # # # # # # # # # # # . <+[+}+|+1+2+3+4+5+6+7+8+9+0+a+b+c+d+e+f+# # # # # # # # # # # # # # # # # # # # # # ",
"# # # # # # # # # # # # # # # # # # # # # . g+h+}+i+j+k+l+m+n+o+p+q+r+s+t+u+v+w+x+y+z+# # # # # # # # # # # # # # # # # # # # # ",
"# # # # # # # # # # # # # # # # # # # # # A+B+C+D+E+F+G+H+I+J+K+L+M+N+O+2+M+P+Q+R+S+T+# # # # # # # # # # # # # # # # # # # # # ",
"# # # # # # # # # # # # # # # # # # # # # U+V+W+X+Y+Z+`+ @.@+@@@#@$@N+M+%@P+&@*@=@-@;@# # # # # # # # # # # # # # # # # # # # # ",
"# # # # # # # # # # # # # # # # # # # # # >@,@'@)@!@~@{@]@^@/@(@_@:@P+<@&@[@&@}@|@1@2@# # # # # # # # # # # # # # # # # # # # # ",
"# # # # # # # # # # # # # # # # # # # # # 3@4@5@6@7@8@9@0@a@b@c@d@e@f@g@h@h@[@i@j@k@l@# # # # # # # # # # # # # # # # # # # # # ",
"# # # # # # # # # # # # # # # # # # # # # m@n@o@p@q@r@s@6@t@u@s@v@w@x@y@d@h@[@z@A@B@C@# # # # # # # # # # # # # # # # # # # # # ",
"# # # # # # # # # # # # # # # # # # # # # D@E@F@G@H@I@J@K@L@M@N@O@[+v@P@Q@R@[@S@T@U@V@# # # # # # # # # # # # # # # # # # # # # ",
"# # # # # # # # # # # # # # # # # # # # # W@X@Y@Z@`@ # # #.#+#@###$#%#&#w@R@h@*#=#-#;## # # # # # # # # # # # # # # # # # # # # ",
"# # # # # # # # # # # # # # # # # # # # # > >#,#'#)#!#~#~#{#]#^#/#(#_#:#<#[#}#|#1#2#3## # # # # # # # # # # # # # # # # # # # # ",
"# # # # # # # # # # # # # # # # # # # # # 4#5#6#7#8#9#0#a#b#c#d#e#f#g#h#i#j#k#l#&#m#z # # # # # # # # # # # # # # # # # # # # # ",
"# # # # # # # # # # # # # # # # # # # # # # n#o#p#q#r#s#t#u#v#w#x#y#z#A#B#C#D#E#F#G#@ # # # # # # # # # # # # # # # # # # # # # ",
"# # # # # # # # # # # # # # # # # # # # # # H#I#J#K#L#M#N#O#P#Q#R#S#T#U#V#W#X#Y#Z#`## # # # # # # # # # # # # # # # # # # # # # ",
"# # # # # # # # # # # # # # # # # # # # # #  $.$+$@$#$#$$$%$&$*$=$-$;$>$,$'$)$!$~${$@ # # # # # # # # # # # # # # # # # # # # # ",
"# # # # # # # # # # # # # # # # # # # # # # ]$^$/$($_$:$<$[$}$|$1$2$3$4$5$6$7$8$9$0$% # # # # # # # # # # # # # # # # # # # # # ",
"# # # # # # # # # # # # # # # # # # # # # # , a$b$c$d$e$f$g$h$i$j$k$l$m$m$n$o$p$q$  % . # # # # # # # # # # # # # # # # # # # # ",
"# # # # # # # # # # # # # # # # # # # # # # # r$s$t$u$v$w$x$y$z$A$B$C$D$E$F$G$H$I$  # P . # # # # # # # # # # # # # # # # # # # ",
"# # # # # # # # # # # # # # # # # # # # # # # J$K$L$M$N$O$P$L$Q$R$S$T$C$U$V$x$W$X$$ # . # # # # # # # # # # # # # # # # # # # # ",
"# # # # # # # # # # # # # # # # # # # # # # # Y$Z$`$w$ %.%+%@%j$#%$%x$%%&%+%*%=%z # $ # # # # # # # # # # # # # # # # # # # # # ",
"# # # # # # # # # # # # # # # # # # # # # # # z -%;%>%,%'%)%!%D$p$~%{%]%^%/%(%(.  # 7 # # # # # # # # # # # # # # # # # # # # # ",
"# # # # # # # # # # # # # # # # # # # # # # # # # _%:%<%[%}%|%1%2%3%4%5%6%7%8%$ . # # # # # # # # # # # # # # # # # # # # # # # ",
"# # # # # # # # # # # # # # # # # # # # # # # # + * 9%0%a%b%6$c%d%e%f%g%h%i%. @ . # # # # # # # # # # # # # # # # # # # # # # # ",
"# # # # # # # # # # # # # # # # # # # # # # # # # 7   j%k%l%6$d%m%n%o%p%q%9 , P . # # # # # # # # # # # # # # # # # # # # # # # ",
"# # # # # # # # # # # # # # # # # # # # # # # # # # 7 7 r%s%t%u%v%w%x%y%z%. # . # # # # # # # # # # # # # # # # # # # # # # # # ",
"# # # # # # # # # # # # # # # # # # # # # # # # # # # # A%B%C%D%_%E%F%A%# # # # # # # # # # # # # # # # # # # # # # # # # # # # ",
"# # # # # # # # # # # # # # # # # # # # # # # # # # # # 7 ' 7 7 # # z G%* # # # # # # # # # # # # # # # # # # # # # # # # # # # ",
"# # # # # # # # # # # # # # # # # # # # # # # # # # # # 8 8 8 8 # # H%I%* # # # # # # # # # # # # # # # # # # # # # # # # # # # ",
"# # # # # # # # # # # # # # # # # # # # # # # # # # # # # # # # # # # @ # # # # # # # # # # # # # # # # # # # # # # # # # # # # ",
"# # # # # # # # # # # # # # # # # # # # # # # # # # # # # # # # # # # # # # # # # # # # # # # # # # # # # # # # # # # # # # # # ",
"# # # # # # # # # # # # # # # # # # # # # # # # # # # # # # # # # # # # # # # # # # # # # # # # # # # # # # # # # # # # # # # # ",
"# # # # # # # # # # # # # # # # # # # # # # # # # # # # # # # # # # # # # # # # # # # # # # # # # # # # # # # # # # # # # # # # ",
"# # # # # # # # # # # # # # # # # # # # # # # # # # # # # # # # # # # # # # # # # # # # # # # # # # # # # # # # # # # # # # # # ",
"# # # # # # # # # # # # # # # # # # # # # # # # # # # # # # # # # # # # # # # # # # # # # # # # # # # # # # # # # # # # # # # # ",
"# # # # # # # # # # # # # # # # # # # # # # # # # # # # # # # # # # # # # # # # # # # # # # # # # # # # # # # # # # # # # # # # ",
"# # # # # # # # # # # # # # # # # # # # # # # # # # # # # # # # # # # # # # # # # # # # # # # # # # # # # # # # # # # # # # # # ",
"# # # # # # # # # # # # # # # # # # # # # # # # # # # # # # # # # # # # # # # # # # # # # # # # # # # # # # # # # # # # # # # # ",
"# # # # # # # # # # # # # # # # # # # # # # # # # # # # # # # # # # # # # # # # # # # # # # # # # # # # # # # # # # # # # # # # ",
"# # # # # # # # # # # # # # # # # # # # # # # # # # # # # # # # # # # # # # # # # # # # # # # # # # # # # # # # # # # # # # # # "};
